# xmcd
#
# Track frame offsets:
#	150
#	12395
#	34669
#	58556
#	75796
#	91958
#	110509
#	125011
#	136678
#	152225
#	170532
#	190100
#
# Disc length: 2716 seconds
#
# Revision: 1
# Processed by: cddbd v1.5.1PL0 Copyright (c) Steve Scherf et al.
# Submitted via: audiograbber 1.81.03
#
DISCID=8e0a9a0c
DTITLE=Travis Tritt - The essentials
DYEAR=2005
DGENRE=
TTITLE0=T-R-O-U-B-L-E
TTITLE1=Foolish pride
TTITLE2=Whiskey ain´t working
TTITLE3=Help me hold on
TTITLE4=More than you´ll ever kmow
TTITLE5=Here is a quarter (Call someone who cares)
TTITLE6=Country Club
TTITLE7=I´m gonna be somebody
TTITLE8=Can I trust you with my heart?
TTITLE9=Anyone
TTITLE10=Drift off to dream
TTITLE11=Lord have mercy on the world
EXTD=
EXTT0=
EXTT1=
EXTT2=
EXTT3=
EXTT4=
EXTT5=
EXTT6=
EXTT7=
EXTT8=
EXTT9=
EXTT10=
EXTT11=
PLAYORDER=
